<svg width="1024" height="1024" viewBox="0 0 1024 1024" fill="none" xmlns="http://www.w3.org/2000/svg">
  <defs>
    <linearGradient id="bg" x1="128" y1="96" x2="896" y2="928" gradientUnits="userSpaceOnUse">
      <stop offset="0" stop-color="#F9F4EC"/>
      <stop offset="1" stop-color="#EFE7DC"/>
    </linearGradient>
    <radialGradient id="glowWarm" cx="0" cy="0" r="1" gradientUnits="userSpaceOnUse" gradientTransform="translate(310 270) rotate(45) scale(380 380)">
      <stop stop-color="#FFD3B5" stop-opacity="0.9"/>
      <stop offset="1" stop-color="#FFD3B5" stop-opacity="0"/>
    </radialGradient>
    <radialGradient id="glowCool" cx="0" cy="0" r="1" gradientUnits="userSpaceOnUse" gradientTransform="translate(760 230) rotate(45) scale(360 360)">
      <stop stop-color="#D4E3DE" stop-opacity="0.95"/>
      <stop offset="1" stop-color="#D4E3DE" stop-opacity="0"/>
    </radialGradient>
    <linearGradient id="shield" x1="512" y1="194" x2="512" y2="842" gradientUnits="userSpaceOnUse">
      <stop offset="0" stop-color="#FFFDF9"/>
      <stop offset="1" stop-color="#F6EDE0"/>
    </linearGradient>
    <linearGradient id="gavel" x1="356" y1="353" x2="649" y2="633" gradientUnits="userSpaceOnUse">
      <stop offset="0" stop-color="#C35D35"/>
      <stop offset="1" stop-color="#8F3718"/>
    </linearGradient>
    <linearGradient id="split" x1="512" y1="314" x2="512" y2="740" gradientUnits="userSpaceOnUse">
      <stop offset="0" stop-color="#A14524"/>
      <stop offset="1" stop-color="#7F2B2F"/>
    </linearGradient>
    <filter id="shadow" x="170" y="146" width="684" height="744" filterUnits="userSpaceOnUse" color-interpolation-filters="sRGB">
      <feFlood flood-opacity="0" result="BackgroundImageFix"/>
      <feColorMatrix in="SourceAlpha" type="matrix" values="0 0 0 0 0 0 0 0 0 0 0 0 0 0 0 0 0 0 127 0" result="hardAlpha"/>
      <feOffset dy="22"/>
      <feGaussianBlur stdDeviation="28"/>
      <feColorMatrix type="matrix" values="0 0 0 0 0.286275 0 0 0 0 0.188235 0 0 0 0 0.0980392 0 0 0 0.16 0"/>
      <feBlend mode="normal" in2="BackgroundImageFix" result="effect1_dropShadow_0_1"/>
      <feBlend mode="normal" in="SourceGraphic" in2="effect1_dropShadow_0_1" result="shape"/>
    </filter>
  </defs>

  <rect width="1024" height="1024" rx="232" fill="url(#bg)"/>
  <circle cx="270" cy="264" r="256" fill="url(#glowWarm)"/>
  <circle cx="790" cy="220" r="246" fill="url(#glowCool)"/>

  <g filter="url(#shadow)">
    <path d="M512 202C623 202 742 257 742 385V563C742 701 640 785 512 836C384 785 282 701 282 563V385C282 257 401 202 512 202Z" fill="url(#shield)"/>
    <path d="M512 202C623 202 742 257 742 385V563C742 701 640 785 512 836C384 785 282 701 282 563V385C282 257 401 202 512 202Z" stroke="#C9B19A" stroke-width="18"/>
  </g>

  <path d="M358 328C394 288 460 288 496 328L514 346L531 328C567 288 633 288 669 328C709 371 709 438 669 478L514 626L358 478C318 438 318 371 358 328Z" fill="#FFF7EF" stroke="#9B4323" stroke-width="26" stroke-linejoin="round"/>

  <path d="M433 390H595" stroke="url(#split)" stroke-width="24" stroke-linecap="round"/>
  <path d="M512 316V700" stroke="url(#split)" stroke-width="24" stroke-linecap="round"/>
  <circle cx="512" cy="392" r="42" fill="#F5D7BF" stroke="#9B4323" stroke-width="18"/>
  <path d="M410 598C444 560 475 542 512 542C549 542 580 560 614 598" stroke="#29644B" stroke-width="24" stroke-linecap="round"/>
  <path d="M392 648H632" stroke="#9B4323" stroke-width="22" stroke-linecap="round"/>
  <path d="M420 694H604" stroke="#C35D35" stroke-width="18" stroke-linecap="round"/>

  <g transform="rotate(-38 512 512)">
    <rect x="434" y="240" width="162" height="64" rx="18" fill="url(#gavel)"/>
    <rect x="396" y="298" width="238" height="44" rx="18" fill="#F5D7BF" stroke="#9B4323" stroke-width="14"/>
    <rect x="484" y="322" width="56" height="226" rx="24" fill="url(#gavel)"/>
    <rect x="462" y="522" width="102" height="42" rx="18" fill="#8F3718"/>
  </g>

  <circle cx="512" cy="512" r="10" fill="#9B4323"/>
</svg>
